#N canvas 332 36 1084 807 12;
#X obj 279 114 *~;
#X obj 310 76 cyclone/train~ 1000 0.1;
#X obj 278 148 cyclone/allpass~ 100 23.83 0.7;
#X obj 279 186 cyclone/allpass~ 100 7.64 0.7;
#X obj 280 227 cyclone/allpass~ 100 2.56 0.7;
#X obj 479 353 *~ 0.25;
#X obj 445 515 dac~;
#X obj 48 304 cyclone/comb~ 500 108.82 1 0 0.742;
#X obj 294 303 cyclone/comb~ 500 113.35 1 0 0.73;
#X obj 539 303 cyclone/comb~ 500 122.42 1 0 0.715;
#X obj 794 304 cyclone/comb~ 500 131.54 1 0 0.697;
#X obj 497 418 sin;
#X obj 451 419 cos;
#X obj 544 366 hsl 128 15 0 1.57 0 0 empty empty empty -2 -8 0 10 #fcfcfc #000000 #000000 0 1;
#X obj 479 445 *~;
#X obj 436 452 *~;
#X obj 452 482 +~;
#X obj 226 77 phasor~ 50;
#X floatatom 541 389 5 0 0 0 - - - 0;
#X connect 0 0 2 0;
#X connect 0 0 15 0;
#X connect 1 0 0 1;
#X connect 2 0 3 0;
#X connect 3 0 4 0;
#X connect 4 0 7 0;
#X connect 4 0 8 0;
#X connect 4 0 9 0;
#X connect 4 0 10 0;
#X connect 5 0 14 0;
#X connect 7 0 5 0;
#X connect 8 0 5 0;
#X connect 9 0 5 0;
#X connect 10 0 5 0;
#X connect 11 0 14 1;
#X connect 12 0 15 1;
#X connect 13 0 18 0;
#X connect 13 0 12 0;
#X connect 14 0 16 1;
#X connect 15 0 16 0;
#X connect 16 0 6 0;
#X connect 16 0 6 1;
#X connect 17 0 0 0;
#X connect 18 0 11 0;
