#N canvas 347 86 1057 804 10;
#X obj 54 81 bng 19 250 50 0 empty empty empty 0 -10 0 12 #fcfcfc #000000 #000000;
#X obj 56 150 vline~;
#X obj 137 188 noise~;
#X obj 55 416 /~ 5;
#X obj 55 456 dac~ 1 2;
#X obj 57 231 *~;
#X obj 55 272 *~ 1;
#X obj 57 390 *~ 1;
#X obj 55 188 pow~ 2;
#X msg 57 114 1 0 \, 0 250;
#X obj 59 351 lop~ 6000 5;
#X obj 9 18 receive triggerOn;
#X obj 111 54 receive sliderValue;
#X obj 93 238 hsl 136 16 100 100 0 0 empty empty empty -2 -8 0 10 #fcfcfc #000000 #000000 0 1;
#X obj 57 312 bp~ 4000 2.5;
#X obj 280 125 receive triggerOn;
#X obj 43 51 metro 500;
#X connect 0 0 9 0;
#X connect 1 0 8 0;
#X connect 2 0 5 1;
#X connect 3 0 4 0;
#X connect 3 0 4 1;
#X connect 5 0 6 0;
#X connect 6 0 14 0;
#X connect 7 0 3 0;
#X connect 8 0 5 0;
#X connect 9 0 1 0;
#X connect 10 0 7 0;
#X connect 11 0 16 0;
#X connect 12 0 14 1;
#X connect 14 0 10 0;
#X connect 16 0 0 0;
