#N canvas 482 133 699 617 10;
#X obj 163 448 /~ 5;
#X obj 163 488 dac~ 1 2;
#X obj 218 69 cyclone/allpass~ 100 23.83 0.7;
#X obj 219 107 cyclone/allpass~ 100 7.64 0.7;
#X obj 220 148 cyclone/allpass~ 100 2.56 0.7;
#X obj 419 274 *~ 0.25;
#X obj -12 225 cyclone/comb~ 500 108.82 1 0 0.742;
#X obj 234 224 cyclone/comb~ 500 113.35 1 0 0.73;
#X obj 479 224 cyclone/comb~ 500 122.42 1 0 0.715;
#X obj 734 225 cyclone/comb~ 500 131.54 1 0 0.697;
#X obj 216 26 tgl 16 0 empty empty empty 0 -8 0 10 #fcfcfc #000000 #000000 0 1;
#X obj 212 347 sin;
#X obj 166 348 cos;
#X obj 240 281 hsl 128 15 0 1.57 0 0 empty empty empty -2 -8 0 10 #fcfcfc #000000 #000000 0 1;
#X obj 194 374 *~;
#X obj 151 381 *~;
#X obj 167 411 +~;
#X floatatom 256 318 5 0 0 0 - - - 0;
#X connect 0 0 1 0;
#X connect 0 0 1 1;
#X connect 2 0 3 0;
#X connect 3 0 4 0;
#X connect 4 0 6 0;
#X connect 4 0 7 0;
#X connect 4 0 8 0;
#X connect 4 0 9 0;
#X connect 5 0 14 0;
#X connect 6 0 5 0;
#X connect 7 0 5 0;
#X connect 8 0 5 0;
#X connect 9 0 5 0;
#X connect 10 0 2 0;
#X connect 11 0 14 1;
#X connect 12 0 15 1;
#X connect 13 0 17 0;
#X connect 13 0 12 0;
#X connect 14 0 16 1;
#X connect 15 0 16 0;
#X connect 16 0 0 0;
#X connect 17 0 11 0;
