#N canvas -1108 116 851 841 16;
#X obj 407 636 /~ 5;
#X obj 407 676 dac~ 1 2;
#X text 479 175 signal from Unity;
#X obj 417 197 receive triggerOn;
#X obj 418 237 bng 24 250 50 0 empty empty empty 0 -12 0 16 #fcfcfc #000000 #000000;
#X obj 401 340 line~;
#X obj 401 375 sqrt~;
#X obj 401 433 -~ 0.25;
#X obj 401 462 cos~;
#X obj 408 565 *~;
#X obj 510 468 phasor~ 65;
#X msg 402 306 0 \, 1 350 1;
#X obj 510 526 env~ 250 50;
#X obj 401 405 *~ 15;
#X obj 401 499 lop~ 900;
#X obj 510 497 lop~ 2000;
#X connect 0 0 1 0;
#X connect 0 0 1 1;
#X connect 3 0 4 0;
#X connect 4 0 11 0;
#X connect 5 0 6 0;
#X connect 6 0 13 0;
#X connect 7 0 8 0;
#X connect 8 0 14 0;
#X connect 9 0 0 0;
#X connect 10 0 15 0;
#X connect 11 0 5 0;
#X connect 12 0 9 1;
#X connect 13 0 7 0;
#X connect 14 0 9 0;
#X connect 15 0 12 0;
