#N canvas 816 116 851 841 16;
#X obj 401 566 /~ 5;
#X obj 401 606 dac~ 1 2;
#X text 406 218 signal from Unity;
#X obj 402 241 receive triggerOn;
#X obj 402 273 bng 24 250 50 0 empty empty empty 0 -12 0 16 #fcfcfc #000000 #000000;
#X obj 401 340 line~;
#X obj 401 375 sqrt~;
#X obj 401 433 -~ 0.25;
#X obj 401 462 cos~;
#X obj 141 130 phasor~ 65;
#X msg 402 306 0 \, 1 350 1;
#X obj 141 188 env~ 250 50;
#X obj 141 159 lop~ 2000;
#X obj 102 579 +~;
#X obj 102 615 /~ 5;
#X obj 102 655 dac~ 1 2;
#X obj 96 319 line~;
#X obj 96 354 sqrt~;
#X obj 96 412 -~ 0.25;
#X obj 96 441 cos~;
#X msg 97 285 0 \, 1 350 1;
#X obj 96 384 *~ 15;
#X obj 96 478 lop~ 900;
#X obj 103 544 *~ 4;
#X obj 401 405 *~ 20;
#X obj 401 499 lop~ 1000;
#X obj 68 730 receive sliderValue;
#X floatatom 68 758 5 0 0 0 - - - 0;
#X obj 401 534 *~ 1;
#X connect 0 0 1 1;
#X connect 0 0 1 0;
#X connect 3 0 4 0;
#X connect 4 0 10 0;
#X connect 5 0 6 0;
#X connect 6 0 24 0;
#X connect 7 0 8 0;
#X connect 8 0 25 0;
#X connect 9 0 12 0;
#X connect 10 0 5 0;
#X connect 12 0 11 0;
#X connect 13 0 14 0;
#X connect 14 0 15 0;
#X connect 14 0 15 1;
#X connect 16 0 17 0;
#X connect 17 0 21 0;
#X connect 18 0 19 0;
#X connect 19 0 22 0;
#X connect 20 0 16 0;
#X connect 21 0 18 0;
#X connect 22 0 23 0;
#X connect 23 0 13 0;
#X connect 24 0 7 0;
#X connect 25 0 28 0;
#X connect 26 0 27 0;
#X connect 28 0 0 0;
