#N canvas 298 199 737 506 10;
#X obj 239 431 dac~;
#X obj 239 366 *~;
#X obj 417 239 line~;
#X obj 391 94 bng 15 250 50 0 empty empty empty 17 7 0 10 #fcfcfc #000000 #000000;
#X text 442 32 signal from Unity;
#X text 535 165 the simplest boop;
#X msg 390 137 1 5;
#X obj 380 54 receive triggerOn;
#X obj 508 52 receive triggerOff;
#X obj 506 100 bng 15 250 50 0 empty empty empty 17 7 0 10 #fcfcfc #000000 #000000;
#X obj 239 387 *~ 0.4;
#X obj 225 5 loadbang;
#X obj 147 327 osc~;
#X obj 142 296 +~;
#X obj 180 82 line~;
#X obj 180 117 sqrt~;
#X obj 180 175 -~ 0.25;
#X obj 180 204 cos~;
#X obj 180 146 *~ 20;
#X obj 180 241 lop~ 1000;
#X obj 267 131 phasor~ 65;
#X msg 181 48 0 \, 1 350 1;
#X obj 267 160 lop~ 100;
#X obj 267 189 env~ 250 50;
#X msg 491 140 0 200;
#X connect 1 0 10 0;
#X connect 2 0 1 1;
#X connect 3 0 6 0;
#X connect 6 0 2 0;
#X connect 7 0 3 0;
#X connect 8 0 9 0;
#X connect 9 0 24 0;
#X connect 10 0 0 0;
#X connect 10 0 0 1;
#X connect 11 0 21 0;
#X connect 12 0 1 0;
#X connect 13 0 12 0;
#X connect 14 0 15 0;
#X connect 15 0 18 0;
#X connect 16 0 17 0;
#X connect 17 0 19 0;
#X connect 18 0 16 0;
#X connect 19 0 13 0;
#X connect 20 0 22 0;
#X connect 21 0 14 0;
#X connect 22 0 23 0;
#X connect 23 0 13 1;
#X connect 24 0 2 0;
