#N canvas 218 185 749 691 16;
#X obj 81 234 t b b;
#X obj 77 419 +~;
#X obj 214 272 line~;
#X obj 328 247 noise~;
#X obj 76 483 /~ 5;
#X obj 76 523 dac~ 1 2;
#X obj 214 300 pow~ 4;
#X msg 213 243 1 \, 0 240;
#X obj 215 360 *~;
#X obj 31 305 line~;
#X msg 30 276 1 \, 0 100;
#X obj 77 448 lop~ 4000;
#X obj 30 376 *~;
#X obj 329 305 bp~ 5000 1.5;
#X obj 328 276 hip~ 2500;
#X obj 31 333 pow~ 6;
#X obj 109 332 osc~ 200;
#X text 144 117 signal from Unity;
#X obj 82 139 receive triggerOn;
#X obj 83 179 bng 24 250 50 0 empty empty empty 0 -12 0 16 #fcfcfc #000000 #000000;
#X connect 0 0 10 0;
#X connect 0 1 7 0;
#X connect 1 0 11 0;
#X connect 2 0 6 0;
#X connect 3 0 14 0;
#X connect 4 0 5 0;
#X connect 4 0 5 1;
#X connect 6 0 8 0;
#X connect 7 0 2 0;
#X connect 8 0 1 1;
#X connect 9 0 15 0;
#X connect 10 0 9 0;
#X connect 11 0 4 0;
#X connect 12 0 1 0;
#X connect 13 0 8 1;
#X connect 14 0 13 0;
#X connect 15 0 12 0;
#X connect 16 0 12 1;
#X connect 18 0 19 0;
#X connect 19 0 0 0;
