#N canvas -1192 51 958 956 16;
#X obj 19 123 bng 19 250 50 0 empty empty empty 0 -10 0 12 #fcfcfc #000000 #000000;
#X obj 22 196 vline~;
#X obj 103 234 noise~;
#X obj 22 516 /~ 5;
#X obj 22 556 dac~ 1 2;
#X obj 556 287 tgl 24 0 empty empty empty 0 -12 0 16 #fcfcfc #000000 #000000 0 1;
#X obj 23 465 +~;
#X obj 23 277 *~;
#X obj 21 318 *~ 1;
#X obj 23 436 *~ 1;
#X obj 21 234 pow~ 2;
#X obj 556 316 metro 1000;
#X msg 23 160 1 0 \, 0 250;
#X obj 25 397 lop~ 6000 5;
#X obj 23 358 bp~ 4000 2.5;
#X text 80 49 signal from Unity;
#X obj 18 71 receive triggerOn;
#X connect 0 0 12 0;
#X connect 1 0 10 0;
#X connect 2 0 7 1;
#X connect 3 0 4 0;
#X connect 3 0 4 1;
#X connect 5 0 11 0;
#X connect 6 0 3 0;
#X connect 7 0 8 0;
#X connect 8 0 14 0;
#X connect 9 0 6 0;
#X connect 10 0 7 0;
#X connect 12 0 1 0;
#X connect 13 0 9 0;
#X connect 14 0 13 0;
#X connect 16 0 0 0;
