#N canvas 407 84 951 857 10;
#X obj 147 356 receive sliderValue;
#X obj 55 72 bng 19 250 50 0 empty empty empty 0 -10 0 12 #fcfcfc #000000 #000000;
#X obj 56 150 vline~;
#X obj 137 188 noise~;
#X obj 57 472 /~ 5;
#X obj 57 512 dac~ 1 2;
#X obj 57 419 +~;
#X obj 57 231 *~;
#X obj 55 272 *~ 1;
#X obj 57 390 *~ 1;
#X obj 55 188 pow~ 2;
#X msg 57 114 1 0 \, 0 250;
#X obj 59 351 lop~ 6000 5;
#X obj 57 312 bp~ 4000 2.5;
#X obj 52 25 receive triggerOn;
#X obj 134 383 hsl 136 16 1 10 0 0 empty empty empty -2 -8 0 10 #fcfcfc #000000 #000000 0 1;
#X connect 1 0 11 0;
#X connect 2 0 10 0;
#X connect 3 0 7 1;
#X connect 4 0 5 0;
#X connect 4 0 5 1;
#X connect 6 0 4 0;
#X connect 7 0 8 0;
#X connect 8 0 13 0;
#X connect 9 0 6 0;
#X connect 10 0 7 0;
#X connect 11 0 2 0;
#X connect 12 0 9 0;
#X connect 13 0 12 0;
#X connect 14 0 1 0;
#X connect 15 0 9 1;
