#N canvas 407 84 1920 966 10;
#X obj 54 81 bng 19 250 50 0 empty empty empty 0 -10 0 12 #fcfcfc #000000 #000000;
#X obj 56 150 vline~;
#X obj 137 188 noise~;
#X obj 228 862 /~ 5;
#X obj 228 902 dac~ 1 2;
#X obj 57 231 *~;
#X obj 55 272 *~ 1;
#X obj 57 390 *~ 1;
#X obj 55 188 pow~ 2;
#X msg 57 114 1 0 \, 0 250;
#X obj 59 351 lop~ 6000 5;
#X obj 9 18 receive triggerOn;
#X obj 193 195 receive sliderValue;
#X obj 139 250 hsl 136 16 100 4000 0 0 empty empty empty -2 -8 0 10 #fcfcfc #000000 #000000 0 1;
#X obj 57 312 bp~ 4000 2.5;
#X obj 280 125 receive triggerOn;
#X obj 283 483 cyclone/allpass~ 100 23.83 0.7;
#X obj 284 521 cyclone/allpass~ 100 7.64 0.7;
#X obj 285 562 cyclone/allpass~ 100 2.56 0.7;
#X obj 484 688 *~ 0.25;
#X obj 53 639 cyclone/comb~ 500 108.82 1 0 0.742;
#X obj 299 638 cyclone/comb~ 500 113.35 1 0 0.73;
#X obj 544 638 cyclone/comb~ 500 122.42 1 0 0.715;
#X obj 799 639 cyclone/comb~ 500 131.54 1 0 0.697;
#X obj 281 440 tgl 16 0 empty empty empty 0 -8 0 10 #fcfcfc #000000 #000000 0 1;
#X obj 277 761 sin;
#X obj 231 762 cos;
#X obj 305 695 hsl 128 15 0 1.57 0 0 empty empty empty -2 -8 0 10 #fcfcfc #000000 #000000 0 1;
#X obj 259 788 *~;
#X obj 216 795 *~;
#X obj 232 825 +~;
#X floatatom 321 732 5 0 0 0 - - - 0;
#X connect 0 0 9 0;
#X connect 1 0 8 0;
#X connect 2 0 5 1;
#X connect 3 0 4 0;
#X connect 3 0 4 1;
#X connect 5 0 6 0;
#X connect 6 0 14 0;
#X connect 7 0 16 0;
#X connect 7 0 29 0;
#X connect 8 0 5 0;
#X connect 9 0 1 0;
#X connect 10 0 7 0;
#X connect 11 0 0 0;
#X connect 14 0 10 0;
#X connect 16 0 17 0;
#X connect 17 0 18 0;
#X connect 18 0 20 0;
#X connect 18 0 21 0;
#X connect 18 0 22 0;
#X connect 18 0 23 0;
#X connect 19 0 28 0;
#X connect 20 0 19 0;
#X connect 21 0 19 0;
#X connect 22 0 19 0;
#X connect 23 0 19 0;
#X connect 24 0 16 0;
#X connect 25 0 28 1;
#X connect 26 0 29 1;
#X connect 27 0 31 0;
#X connect 27 0 26 0;
#X connect 28 0 30 1;
#X connect 29 0 30 0;
#X connect 30 0 3 0;
#X connect 31 0 25 0;
